# xmcd
#
# Track frame offsets:
#	183
#	11513
#	28355
#	41393
#	61590
#	85528
#	105795
#	124485
#	142208
#	166388
#	184825
#	196768
#	209043
#	230228
#	240358
#	251928
#	267453
#	286213
#	303968
#	318588
#
# Disc length: 4577 seconds
#
# Revision: 2
# Processed by: cddbd v1.4PL0 Copyright (c) Steve Scherf et al.
# Submitted via: audiograbber 1.81.03
#
DISCID=2011df14
DTITLE=Various Artist - Original Blues
DYEAR=1994
DGENRE=Blues
TTITLE0=John Lee Hooker - Boom Boom
TTITLE1=Robert Cray - Who's Been Talkin'
TTITLE2=Muddy Waters - Mannish Boy
TTITLE3=B.B. King - Sweet Sixteen
TTITLE4=Albert Collins - Cold, Cold Feeling
TTITLE5=Bonnie Raitt and A.C. Reed - She's Fine
TTITLE6=Junior Wells - Oh, Pretty Woman
TTITLE7=Buddy Guy - Worried Blues
TTITLE8=Lonnie Mack - Stop
TTITLE9=Rory Block - Lovin' Whiskey
TTITLE10=Jimmy Reed - Bright Lights Big City
TTITLE11=Eric Clapton, Jeff Beck, Jimmy Page - Highway 49
TTITLE12=Koko Taylor - Walking The Backstreets
TTITLE13=Little Willie John - Need Your Love So Bad
TTITLE14=Sonny Boy Williamson - Don't Start Me Talking
TTITLE15=Artie Kaplan - Bensonhurst Blues
TTITLE16=Clarence Gatemouth Brown - Better Of With The Blues
TTITLE17=Lightnin' Hopkins - Found My Baby Cryin'
TTITLE18=Tupelo Bone - Cajun Angel
TTITLE19=Albert Collins and Robert Cray - The Dream
EXTD=
EXTT0=John Lee Hooker\n
EXTT1=Robert Cray\n
EXTT2=Muddy waters\n
EXTT3=B.B. King\n
EXTT4=Albert Collins\n
EXTT5=Bonnie Raitt and A.C. Reed\n
EXTT6=Junior Wells\n
EXTT7=Buddy Guy\n
EXTT8=Lonnie Mack\n
EXTT9=Rory Block\n
EXTT10=Jimmy Reed\n
EXTT11=Eric Clapton/Jeff Beck/Jimmy Page\n
EXTT12=Koko Taylor\n
EXTT13=Little Willie John\n
EXTT14=Sonny Boy Williamson\n
EXTT15=Artie kaplan\n
EXTT16=Clarence Gatemouth Brown\n
EXTT17=Lightnin' Hopkins\n
EXTT18=Tupelo Brown\n
EXTT19=Albert Collins and Robert Cray\n
PLAYORDER=
